<?xml version="1.0" encoding="utf-8"?>
<!-- Generator: Adobe Illustrator 15.1.0, SVG Export Plug-In  -->
<!DOCTYPE svg [
	<!ENTITY ns_flows "http://ns.adobe.com/Flows/1.0/">
]>
<svg version="1.2" baseProfile="tiny"
	 xmlns="http://www.w3.org/2000/svg" xmlns:xlink="http://www.w3.org/1999/xlink" xmlns:a="http://ns.adobe.com/AdobeSVGViewerExtensions/3.0/"
	 x="0px" y="0px" width="25px" height="25px" viewBox="-1.5 -2.41699 25 25" overflow="visible" xml:space="preserve">
<defs>
</defs>
<path fill="#4A4A4A" d="M5.16064,7.2002c1.0249-2.40918,3.29785-4.16016,6.01172-4.42676V0
	C7.4082,0.26855,4.22754,2.60156,2.72803,5.86816L0,4.375l1.83008,6.25684l6.25635-1.83105L5.16064,7.2002z M12.62549,0v2.77344
	c3.70605,0.36426,6.60205,3.48926,6.60205,7.29102c0,4.04785-3.28125,7.3291-7.32861,7.3291
	c-3.71338,0-6.77393-2.76465-7.25488-6.34668l-2.68604,0.76465c0.8291,4.74512,4.95898,8.35449,9.94092,8.35449
	C17.47754,20.16602,22,15.64355,22,10.06445C22,4.73145,17.86328,0.37305,12.62549,0z M10.68506,11.9082
	c0.29346,0.08398,0.70508,0.09375,1.29053-0.04199l5.2207-1.25195c0.19824,0,0.3584-0.15918,0.3584-0.3584
	c0-0.19727-0.16016-0.35742-0.3584-0.35742L12.7793,9.0625l-0.82471-4.35742c0-0.19824-0.16016-0.35742-0.3584-0.35742
	s-0.35791,0.15918-0.35791,0.35742l-1.25146,5.2207C9.61768,11.51953,10.31787,11.84375,10.68506,11.9082z"/>
</svg>
